<?xml version="1.0" encoding="UTF-8" standalone="no"?>
<svg width="149px" height="38px" viewBox="0 0 149 38" version="1.1" xmlns="http://www.w3.org/2000/svg" xmlns:xlink="http://www.w3.org/1999/xlink">
    <!-- Generator: Sketch 3.8.3 (29802) - http://www.bohemiancoding.com/sketch -->
    <title>scaladex-brand</title>
    <desc>Created with Sketch.</desc>
    <defs></defs>
    <g id="UI-Design" stroke="none" stroke-width="1" fill="none" fill-rule="evenodd">
        <g id="Assets" transform="translate(-112.000000, -76.000000)">
            <g id="scaladex-brand" transform="translate(112.000000, 79.000000)">
                <g id="Icon"></g>
                <path d="M42.862,20.599 C43.4920031,21.193003 44.2119959,21.6744982 45.022,22.0435 C45.832004,22.4125018 46.6419959,22.597 47.452,22.597 C48.460005,22.597 49.2249974,22.3900021 49.747,21.976 C50.2690026,21.5619979 50.53,21.0130034 50.53,20.329 C50.53,19.9689982 50.4625007,19.6630013 50.3275,19.411 C50.1924993,19.1589987 50.0035012,18.9385009 49.7605,18.7495 C49.5174988,18.5604991 49.2295017,18.3850008 48.8965,18.223 C48.5634983,18.0609992 48.199002,17.8990008 47.803,17.737 L45.373,16.684 C44.9409978,16.5039991 44.5135021,16.2790014 44.0905,16.009 C43.6674979,15.7389987 43.2850017,15.4150019 42.943,15.037 C42.6009983,14.6589981 42.326501,14.2180025 42.1195,13.714 C41.912499,13.2099975 41.809,12.6340032 41.809,11.986 C41.809,11.2839965 41.9574985,10.631503 42.2545,10.0285 C42.5515015,9.42549699 42.9609974,8.89900225 43.483,8.449 C44.0050026,7.99899775 44.6304964,7.64800126 45.3595,7.396 C46.0885036,7.14399874 46.8849957,7.018 47.749,7.018 C48.7750051,7.018 49.7649952,7.22049798 50.719,7.6255 C51.6730048,8.03050203 52.4919966,8.57499658 53.176,9.259 L51.583,11.257 C51.0069971,10.7889977 50.4130031,10.4200014 49.801,10.15 C49.1889969,9.87999865 48.5050038,9.745 47.749,9.745 C46.9029958,9.745 46.2280025,9.92949816 45.724,10.2985 C45.2199975,10.6675018 44.968,11.1759968 44.968,11.824 C44.968,12.1660017 45.0444992,12.4584988 45.1975,12.7015 C45.3505008,12.9445012 45.5574987,13.1604991 45.8185,13.3495 C46.0795013,13.5385009 46.3809983,13.7094992 46.723,13.8625 C47.0650017,14.0155008 47.4159982,14.1639993 47.776,14.308 L50.179,15.307 C50.7010026,15.5230011 51.1779978,15.7749986 51.61,16.063 C52.0420022,16.3510014 52.4154984,16.6839981 52.7305,17.062 C53.0455016,17.4400019 53.2929991,17.8764975 53.473,18.3715 C53.6530009,18.8665025 53.743,19.4379968 53.743,20.086 C53.743,20.8060036 53.5990014,21.4809969 53.311,22.111 C53.0229986,22.7410032 52.6045027,23.2944976 52.0555,23.7715 C51.5064973,24.2485024 50.8405039,24.6264986 50.0575,24.9055 C49.2744961,25.1845014 48.3880049,25.324 47.398,25.324 C46.2099941,25.324 45.0625055,25.0990023 43.9555,24.649 C42.8484945,24.1989978 41.8720042,23.5600041 41.026,22.732 L42.862,20.599 Z M55.822,18.385 C55.822,17.2869945 56.0019982,16.3060043 56.362,15.442 C56.7220018,14.5779957 57.2079969,13.849003 57.82,13.255 C58.4320031,12.660997 59.138496,12.2065016 59.9395,11.8915 C60.740504,11.5764984 61.5819956,11.419 62.464,11.419 C63.3280043,11.419 64.0794968,11.5674985 64.7185,11.8645 C65.3575032,12.1615015 65.9019977,12.5259978 66.352,12.958 L64.867,14.929 C64.5069982,14.6229985 64.1470018,14.3845009 63.787,14.2135 C63.4269982,14.0424991 63.0400021,13.957 62.626,13.957 C61.5459946,13.957 60.6730033,14.357496 60.007,15.1585 C59.3409967,15.959504 59.008,17.0349933 59.008,18.385 C59.008,19.7170067 59.3364967,20.783496 59.9935,21.5845 C60.6505033,22.385504 61.5009948,22.786 62.545,22.786 C63.0850027,22.786 63.5844977,22.6735011 64.0435,22.4485 C64.5025023,22.2234989 64.9119982,21.9580015 65.272,21.652 L66.568,23.623 C65.9379968,24.1810028 65.2450038,24.6039986 64.489,24.892 C63.7329962,25.1800014 62.9770038,25.324 62.221,25.324 C61.3209955,25.324 60.4795039,25.1710015 59.6965,24.865 C58.9134961,24.5589985 58.2340029,24.109003 57.658,23.515 C57.0819971,22.920997 56.6320016,22.1920043 56.308,21.328 C55.9839984,20.4639957 55.822,19.4830055 55.822,18.385 L55.822,18.385 Z M68.593,21.436 C68.593,20.0139929 69.2139938,18.9160039 70.456,18.142 C71.6980062,17.3679961 73.6779864,16.8280015 76.396,16.522 C76.396,16.1799983 76.3510004,15.8515016 76.261,15.5365 C76.1709995,15.2214984 76.0315009,14.9425012 75.8425,14.6995 C75.6534991,14.4564988 75.4105015,14.2675007 75.1135,14.1325 C74.8164985,13.9974993 74.4430022,13.93 73.993,13.93 C73.3269967,13.93 72.6835031,14.0559987 72.0625,14.308 C71.4414969,14.5600013 70.8430029,14.8659982 70.267,15.226 L69.133,13.147 C69.8710037,12.6789977 70.6944955,12.2740017 71.6035,11.932 C72.5125045,11.5899983 73.4979947,11.419 74.56,11.419 C76.2340084,11.419 77.4759959,11.9094951 78.286,12.8905 C79.096004,13.8715049 79.501,15.2889907 79.501,17.143 L79.501,25 L76.963,25 L76.72,23.542 L76.639,23.542 C76.044997,24.0460025 75.4105034,24.4689983 74.7355,24.811 C74.0604966,25.1530017 73.327004,25.324 72.535,25.324 C71.3649941,25.324 70.4155036,24.9685036 69.6865,24.2575 C68.9574964,23.5464964 68.593,22.6060059 68.593,21.436 L68.593,21.436 Z M71.617,21.193 C71.617,21.787003 71.7924982,22.2189987 72.1435,22.489 C72.4945018,22.7590014 72.9489972,22.894 73.507,22.894 C74.0470027,22.894 74.5419977,22.7680013 74.992,22.516 C75.4420022,22.2639987 75.9099976,21.9040023 76.396,21.436 L76.396,18.466 C75.4959955,18.5740005 74.7400031,18.7179991 74.128,18.898 C73.5159969,19.0780009 73.0255018,19.2804989 72.6565,19.5055 C72.2874982,19.7305011 72.0220008,19.9869986 71.86,20.275 C71.6979992,20.5630014 71.617,20.8689984 71.617,21.193 L71.617,21.193 Z M83.281,5.938 L86.386,5.938 L86.386,21.76 C86.386,22.1380019 86.4579993,22.4034992 86.602,22.5565 C86.7460007,22.7095008 86.8989992,22.786 87.061,22.786 L87.2635,22.786 C87.3265003,22.786 87.4209994,22.7680002 87.547,22.732 L87.952,25.054 C87.5379979,25.2340009 86.9890034,25.324 86.305,25.324 C85.1889944,25.324 84.4060022,24.9910033 83.956,24.325 C83.5059977,23.6589967 83.281,22.7500058 83.281,21.598 L83.281,5.938 Z M90.031,21.436 C90.031,20.0139929 90.6519938,18.9160039 91.894,18.142 C93.1360062,17.3679961 95.1159864,16.8280015 97.834,16.522 C97.834,16.1799983 97.7890004,15.8515016 97.699,15.5365 C97.6089995,15.2214984 97.4695009,14.9425012 97.2805,14.6995 C97.0914991,14.4564988 96.8485015,14.2675007 96.5515,14.1325 C96.2544985,13.9974993 95.8810022,13.93 95.431,13.93 C94.7649967,13.93 94.1215031,14.0559987 93.5005,14.308 C92.8794969,14.5600013 92.2810029,14.8659982 91.705,15.226 L90.571,13.147 C91.3090037,12.6789977 92.1324955,12.2740017 93.0415,11.932 C93.9505045,11.5899983 94.9359947,11.419 95.998,11.419 C97.6720084,11.419 98.9139959,11.9094951 99.724,12.8905 C100.534004,13.8715049 100.939,15.2889907 100.939,17.143 L100.939,25 L98.401,25 L98.158,23.542 L98.077,23.542 C97.482997,24.0460025 96.8485034,24.4689983 96.1735,24.811 C95.4984966,25.1530017 94.765004,25.324 93.973,25.324 C92.8029941,25.324 91.8535036,24.9685036 91.1245,24.2575 C90.3954964,23.5464964 90.031,22.6060059 90.031,21.436 L90.031,21.436 Z M93.055,21.193 C93.055,21.787003 93.2304982,22.2189987 93.5815,22.489 C93.9325018,22.7590014 94.3869972,22.894 94.945,22.894 C95.4850027,22.894 95.9799977,22.7680013 96.43,22.516 C96.8800022,22.2639987 97.3479976,21.9040023 97.834,21.436 L97.834,18.466 C96.9339955,18.5740005 96.1780031,18.7179991 95.566,18.898 C94.9539969,19.0780009 94.4635018,19.2804989 94.0945,19.5055 C93.7254982,19.7305011 93.4600008,19.9869986 93.298,20.275 C93.1359992,20.5630014 93.055,20.8689984 93.055,21.193 L93.055,21.193 Z M103.909,18.385 C103.909,17.3049946 104.066498,16.3330043 104.3815,15.469 C104.696502,14.6049957 105.114997,13.876003 105.637,13.282 C106.159003,12.687997 106.757497,12.2290016 107.4325,11.905 C108.107503,11.5809984 108.804996,11.419 109.525,11.419 C110.281004,11.419 110.919997,11.5494987 111.442,11.8105 C111.964003,12.0715013 112.485997,12.4269978 113.008,12.877 L112.9,10.744 L112.9,5.938 L116.005,5.938 L116.005,25 L113.44,25 L113.224,23.569 L113.116,23.569 C112.629998,24.0550024 112.063003,24.4689983 111.415,24.811 C110.766997,25.1530017 110.083004,25.324 109.363,25.324 C107.688992,25.324 106.361505,24.7165061 105.3805,23.5015 C104.399495,22.2864939 103.909,20.581011 103.909,18.385 L103.909,18.385 Z M107.122,18.358 C107.122,19.7980072 107.378497,20.8914963 107.8915,21.6385 C108.404503,22.3855037 109.146995,22.759 110.119,22.759 C111.109005,22.759 112.035996,22.264005 112.9,21.274 L112.9,15.091 C112.431998,14.6769979 111.977502,14.3890008 111.5365,14.227 C111.095498,14.0649992 110.650002,13.984 110.2,13.984 C109.335996,13.984 108.607003,14.3619962 108.013,15.118 C107.418997,15.8740038 107.122,16.953993 107.122,18.358 L107.122,18.358 Z M119.083,18.385 C119.083,17.3049946 119.253998,16.3330043 119.596,15.469 C119.938002,14.6049957 120.392497,13.876003 120.9595,13.282 C121.526503,12.687997 122.178996,12.2290016 122.917,11.905 C123.655004,11.5809984 124.410996,11.419 125.185,11.419 C126.085004,11.419 126.876997,11.5719985 127.561,11.878 C128.245003,12.1840015 128.816498,12.6159972 129.2755,13.174 C129.734502,13.7320028 130.080999,14.3979961 130.315,15.172 C130.549001,15.9460039 130.666,16.7919954 130.666,17.71 C130.666,18.3220031 130.621,18.8079982 130.531,19.168 L122.107,19.168 C122.251001,20.374006 122.669497,21.3009968 123.3625,21.949 C124.055503,22.5970032 124.941995,22.921 126.022,22.921 C126.598003,22.921 127.133498,22.8355009 127.6285,22.6645 C128.123502,22.4934991 128.613998,22.2550015 129.1,21.949 L130.153,23.893 C129.522997,24.3070021 128.821004,24.6489987 128.047,24.919 C127.272996,25.1890014 126.463004,25.324 125.617,25.324 C124.698995,25.324 123.844004,25.1665016 123.052,24.8515 C122.259996,24.5364984 121.567003,24.082003 120.973,23.488 C120.378997,22.893997 119.915502,22.1695043 119.5825,21.3145 C119.249498,20.4594957 119.083,19.4830055 119.083,18.385 L119.083,18.385 Z M127.966,17.197 C127.966,16.1349947 127.745502,15.307003 127.3045,14.713 C126.863498,14.118997 126.184005,13.822 125.266,13.822 C124.473996,13.822 123.781003,14.1054972 123.187,14.6725 C122.592997,15.2395028 122.224001,16.0809944 122.08,17.197 L127.966,17.197 Z M136.255,18.088 L132.313,11.743 L135.661,11.743 L137.146,14.254 C137.344001,14.6140018 137.546499,14.9874981 137.7535,15.3745 C137.960501,15.7615019 138.162999,16.1349982 138.361,16.495 L138.469,16.495 C138.631001,16.1349982 138.801999,15.7615019 138.982,15.3745 C139.162001,14.9874981 139.332999,14.6140018 139.495,14.254 L140.764,11.743 L143.977,11.743 L140.062,18.439 L144.274,25 L140.926,25 L139.306,22.381 C139.089999,21.984998 138.869501,21.589002 138.6445,21.193 C138.419499,20.796998 138.190001,20.4100019 137.956,20.032 L137.848,20.032 C137.649999,20.4100019 137.456501,20.7924981 137.2675,21.1795 C137.078499,21.5665019 136.885001,21.9669979 136.687,22.381 L135.283,25 L132.043,25 L136.255,18.088 Z" id="Scaladex" fill="#FFFFFF"></path>
                <path d="M11,3 L28,3 L28,0 L9,0 L0.0299987793,16.5 L9,32.933038 L9,33 L28,33 L28,30 L11.0689068,30 L3.81280518,16.5000005 L11,3 Z M13,9 L32,9 L32,12 L13,12 L13,9 Z M13,15 L24,15 L24,18 L13,18 L13,15 Z M13,21 L28,21 L28,24 L13,24 L13,21 Z" id="Icon" fill="#F26527"></path>
            </g>
        </g>
    </g>
</svg>