<?xml version="1.0" standalone="no"?>
<!DOCTYPE svg PUBLIC "-//W3C//DTD SVG 20010904//EN"
 "http://www.w3.org/TR/2001/REC-SVG-20010904/DTD/svg10.dtd">
<svg version="1.0" xmlns="http://www.w3.org/2000/svg"
 width="260.000000pt" height="260.000000pt" viewBox="0 0 260.000000 260.000000"
 preserveAspectRatio="xMidYMid meet">
<metadata>
Created by potrace 1.11, written by Peter Selinger 2001-2013
</metadata>
<g transform="translate(0.000000,260.000000) scale(0.100000,-0.100000)"
fill="#000000" stroke="none">
<path d="M674 2467 c-39 -72 -156 -287 -259 -477 -103 -190 -203 -374 -223
-410 -19 -36 -47 -87 -62 -115 -15 -27 -42 -76 -59 -107 l-31 -58 181 -332
c100 -183 194 -355 209 -383 15 -27 45 -81 66 -120 21 -38 86 -158 145 -265
l106 -195 749 0 749 0 0 115 0 115 -663 1 c-560 0 -665 3 -676 15 -7 8 -86
151 -176 319 -208 390 -209 391 -345 643 l-47 87 103 193 c56 105 114 215 129
242 15 28 49 91 75 140 26 50 70 133 98 185 28 52 72 133 97 180 25 47 50 94
56 104 11 19 32 20 681 20 l668 0 0 115 0 116 -750 2 -750 3 -71 -133z"/>
<path d="M1063 1773 l2 -118 745 0 745 0 3 118 3 117 -750 0 -749 0 1 -117z"/>
<path d="M1065 1407 c-2 -7 -3 -59 -2 -117 l2 -105 433 -2 432 -3 0 120 0 119
-431 0 c-319 0 -431 -4 -434 -12z"/>
<path d="M1071 940 c-5 -3 -9 -56 -9 -118 l0 -112 591 2 592 3 0 113 c0 61 -2
113 -5 113 -18 5 -1162 4 -1169 -1z"/>
</g>
</svg>
